HIERARCHY
ROOT root
{
	OFFSET	0	13.1	24.9
	CHANNELS 6  Xposition Yposition Zposition Xrotation Yrotation Zrotation
	JOINT spine_1
	{
		OFFSET	0	9.99999	0
		CHANNELS 3  Xrotation Yrotation Zrotation
		JOINT spine_2
		{
			OFFSET	0	112	-10
			CHANNELS 3  Xrotation Yrotation Zrotation
			JOINT spine_3
			{
				OFFSET	0	206.5	19.3
				CHANNELS 3  Xrotation Yrotation Zrotation
				JOINT spine_4
				{
					OFFSET	0	110.4	14.6
					CHANNELS 3  Xrotation Yrotation Zrotation
					JOINT neck_1
					{
						OFFSET	0	71.8	-50.3
						CHANNELS 3  Xrotation Yrotation Zrotation
						JOINT neck_2
						{
							OFFSET	0	86.2	-25.8
							CHANNELS 3  Xrotation Yrotation Zrotation
							JOINT head_ee
							{
								OFFSET	0	179.8	-8.7
								CHANNELS 3  Xrotation Yrotation Zrotation
								End Site
								{
									OFFSET	1	0	0
								}
							}
						}
					}
					JOINT left_clavicle
					{
						OFFSET	-43.2	22.4	-70.8
						CHANNELS 3  Xrotation Yrotation Zrotation
						JOINT left_shoulder
						{
							OFFSET	-93.9	-5.79999	48.7
							CHANNELS 3  Xrotation Yrotation Zrotation
							JOINT left_elbow
							{
								OFFSET	-291.4	-30.8	15.2
								CHANNELS 3  Xrotation Yrotation Zrotation
								JOINT left_lowarm_twist
								{
									OFFSET	-110.7	-3.89999	13.6
									CHANNELS 3  Xrotation Yrotation Zrotation
									JOINT left_hand
									{
										OFFSET	-110.7	-3.89999	13.6
										CHANNELS 3  Xrotation Yrotation Zrotation
										JOINT left_ee
										{
											OFFSET	-80.8	-5.10001	12.1
											CHANNELS 3  Xrotation Yrotation Zrotation
											End Site
											{
												OFFSET	1	0	0
											}
										}
									}
								}
							}
						}
					}
					JOINT right_clavicle
					{
						OFFSET	43.2	22.4	-70.8
						CHANNELS 3  Xrotation Yrotation Zrotation
						JOINT right_shoulder
						{
							OFFSET	93.9	-5.79999	48.7
							CHANNELS 3  Xrotation Yrotation Zrotation
							JOINT right_elbow
							{
								OFFSET	291.4	-30.8	15.2
								CHANNELS 3  Xrotation Yrotation Zrotation
								JOINT right_lowarm_twist
								{
									OFFSET	110.7	-3.89999	13.6
									CHANNELS 3  Xrotation Yrotation Zrotation
									JOINT right_hand
									{
										OFFSET	110.7	-3.89999	13.6
										CHANNELS 3  Xrotation Yrotation Zrotation
										JOINT right_ee
										{
											OFFSET	80.8	-5.10001	12.1
											CHANNELS 3  Xrotation Yrotation Zrotation
											End Site
											{
												OFFSET	1	0	0
											}
										}
									}
								}
							}
						}
					}
				}
			}
		}
	}
	JOINT left_hip
	{
		OFFSET	-82.8	-127.5	0.300001
		CHANNELS 3  Xrotation Yrotation Zrotation
		JOINT left_knee
		{
			OFFSET	-28.2	-396.7	2.2
			CHANNELS 3  Xrotation Yrotation Zrotation
			JOINT left_ankle
			{
				OFFSET	-11.7	-411.3	35.4
				CHANNELS 3  Xrotation Yrotation Zrotation
				JOINT left_toes
				{
					OFFSET	0	-60	-88.6
					CHANNELS 3  Xrotation Yrotation Zrotation
					JOINT left_foot_ee
					{
						OFFSET	-22.5	-16.5	-42.2
						CHANNELS 3  Xrotation Yrotation Zrotation
						End Site
						{
							OFFSET	1	0	0
						}
					}
				}
			}
		}
	}
	JOINT right_hip
	{
		OFFSET	82.8	-127.5	0.300001
		CHANNELS 3  Xrotation Yrotation Zrotation
		JOINT right_knee
		{
			OFFSET	28.2	-396.7	2.2
			CHANNELS 3  Xrotation Yrotation Zrotation
			JOINT right_ankle
			{
				OFFSET	11.7	-411.3	35.4
				CHANNELS 3  Xrotation Yrotation Zrotation
				JOINT right_toes
				{
					OFFSET	0	-60	-88.6
					CHANNELS 3  Xrotation Yrotation Zrotation
					JOINT right_foot_ee
					{
						OFFSET	22.5	-16.5	-42.2
						CHANNELS 3  Xrotation Yrotation Zrotation
						End Site
						{
							OFFSET	1	0	0
						}
					}
				}
			}
		}
	}
}
MOTION
Frames: 11
Frame Time: 0.02
2533.7 690.486 -1090.84 -24.7967 51.1874 19.4715 5.17373 0.0995647 1.98447 5.17592 -0.0268886 1.98678 5.17303 -0.26754 1.96888 5.16763 0.0467013 1.98642 0.512357 6.26167 -8.18636 1.0635 17.8387 -8.33845 -0.0 0.0 -0.0 -2.20784 -3.99647 -4.89644 -7.14562 -20.2445 88.7308 0.421598 -11.7967 0.0435559 -18.2624 -0.988112 2.10592 -0.922939 10.2245 -1.67239 -0.0 0.0 -0.0 11.3025 24.6951 -21.9339 2.6919 11.9528 -66.5271 2.62655 52.4462 -1.29391 -49.1896 3.97712 -4.63985 1.70164 7.41534 -8.36949 0.0 0.0 0.0 36.8791 -15.0948 -4.92435 -1.65875 0.0647357 0.246319 7.39646 27.4571 -1.12427 -11.9629 0.0 0.0 -0.0 0.0 -0.0 15.0922 -8.65839 9.13381 -26.1301 -0.172735 -3.97157 36.1275 21.3904 5.04551 2.49667 -0.0 -0.0 0.0 0.0 0.0 
2510.38 687.794 -1093.94 -24.2491 50.8982 19.158 5.10931 0.0903434 1.91369 5.11135 -0.03159 1.91556 5.1085 -0.265706 1.89731 5.10348 0.0372165 1.91546 0.742368 5.82705 -8.75078 1.32725 17.5395 -9.04262 -0.0 0.0 -0.0 -2.64691 -4.40416 -5.8468 -8.29295 -20.7336 89.2686 0.416337 -11.6536 0.0424868 -18.3899 -0.997316 2.1194 -0.864041 9.8917 -1.44096 -0.0 0.0 -0.0 11.2144 24.2505 -21.7788 1.89475 11.7963 -66.7075 2.55327 51.6606 -1.23612 -49.0365 3.95931 -4.63157 1.76424 6.95991 -8.99119 0.0 0.0 0.0 36.6208 -15.8046 -4.85167 -3.05916 0.113812 0.455632 8.32516 27.3017 -1.26087 -11.9264 0.0 0.0 -0.0 0.0 -0.0 15.0826 -6.51686 9.25478 -27.9605 -0.116765 -4.2469 35.6485 21.3287 4.99428 2.34744 -0.0 -0.0 0.0 0.0 0.0 
2488.11 690.354 -1100.1 -24.5741 51.0639 19.9895 5.04006 0.0940245 1.8614 5.04199 -0.0245911 1.86361 5.03953 -0.25462 1.84631 5.03477 0.0401131 1.86335 -0.450267 6.33175 -7.79358 0.030388 17.6261 -7.72218 -0.0 0.0 -0.0 -3.1974 -4.10253 -6.91333 -8.4441 -20.8595 90.8087 0.457639 -12.7733 0.0512248 -18.5317 -1.00759 2.13438 -0.907532 9.98174 -1.6802 -0.0 0.0 -0.0 11.0502 23.4287 -21.4856 -0.847679 11.5666 -66.4983 2.46524 50.6794 -1.16754 -48.6257 3.9116 -4.6091 1.75863 7.1159 -8.88637 0.0 0.0 0.0 36.5313 -16.6496 -4.53373 -4.22875 0.150865 0.631303 5.4193 27.5738 -0.82879 -12.8175 0.0 0.0 -0.0 0.0 -0.0 14.8906 -4.50727 8.86687 -29.7232 -0.054571 -4.51025 35.1123 20.9597 4.92345 2.57039 -0.0 -0.0 0.0 0.0 0.0 
2459.52 694.48 -1105.46 -23.3073 50.87 18.9242 5.13594 0.0558005 1.63693 5.13743 -0.0484605 1.63716 5.13474 -0.247634 1.61906 5.13108 0.0111383 1.63784 -0.252902 6.20656 -7.88907 0.236751 17.4842 -7.87441 -0.0 0.0 -0.0 -3.37412 -4.51673 -7.34304 -7.76092 -20.237 91.3287 0.481676 -13.4205 0.0566716 -18.6649 -1.01728 2.14842 -0.691288 10.3913 -0.119382 -0.0 0.0 -0.0 10.9045 21.7656 -21.3022 -2.61889 11.0134 -66.9349 2.33158 49.1068 -1.0653 -48.7068 3.92101 -4.61357 1.7783 6.7209 -9.18898 0.0 0.0 0.0 36.3526 -17.305 -3.81482 -8.16122 0.248999 1.22669 6.04449 28.4132 -0.927758 -12.4745 0.0 0.0 -0.0 0.0 -0.0 14.4519 -1.56445 8.72666 -31.2453 0.00564248 -4.73608 34.9454 20.9232 4.90467 2.69153 -0.0 -0.0 0.0 0.0 0.0 
2429.7 697.298 -1107.37 -22.5426 50.5836 18.3103 5.05474 0.115423 1.5998 5.05616 0.0134029 1.6039 5.05531 -0.184361 1.59333 5.05177 0.0695558 1.60245 0.539389 6.32934 -7.51221 1.03685 17.4065 -7.59186 -0.0 0.0 -0.0 -3.61579 -4.58452 -7.84804 -7.08068 -18.1935 91.8681 0.508768 -14.1458 0.0631265 -18.7262 -1.02174 2.15487 -0.562052 10.5651 0.779909 -0.0 0.0 -0.0 10.5444 19.6623 -20.6495 -5.774 11.4766 -67.169 2.29331 48.6372 -1.03648 -48.6239 3.9114 -4.609 1.69672 5.27462 -9.24301 0.0 0.0 0.0 36.1584 -17.7138 -3.24767 -11.4077 0.299075 1.72227 9.08119 27.0154 -1.36993 -11.1067 0.0 0.0 -0.0 0.0 -0.0 14.3375 2.00941 8.32579 -32.9819 0.0816528 -4.99172 34.0403 18.7482 4.72435 2.6836 -0.0 -0.0 0.0 0.0 0.0 
2400.01 699.15 -1104.73 -22.1717 50.7304 17.7815 4.90683 0.00591302 1.46907 4.90803 -0.0875696 1.46647 4.90481 -0.271446 1.44379 4.9019 -0.0400449 1.46854 -0.529056 6.63026 -7.0172 -0.0968556 17.5306 -6.83187 -0.0 0.0 -0.0 -3.81419 -4.49218 -8.23755 -5.36618 -16.3245 93.2471 0.528935 -14.6827 0.0681467 -20.4432 -1.1497 2.3337 -0.630402 11.1219 0.581329 -0.0 0.0 -0.0 9.90865 18.7081 -19.2879 -8.28848 10.3796 -67.3027 2.47332 50.7711 -1.1738 -49.3056 3.99063 -4.64609 1.73147 3.28618 -10.3093 0.0 0.0 0.0 36.315 -17.6774 -1.62947 -13.4488 0.316153 2.03496 6.29395 26.7629 -0.955623 -12.044 0.0 0.0 -0.0 0.0 -0.0 14.3108 10.5088 6.48639 -35.2364 0.191847 -5.32001 34.8118 13.6658 4.63782 1.63904 -0.0 -0.0 0.0 0.0 0.0 
2377.27 694.975 -1109.44 -22.7161 52.0473 18.4822 4.83371 0.0106763 1.42037 4.83483 -0.079718 1.41817 4.83196 -0.259348 1.39654 4.82924 -0.0355595 1.41997 0.0322385 6.42315 -6.13643 0.409102 16.4484 -5.98495 -0.0 0.0 -0.0 -3.65884 -3.5153 -7.74771 -6.76977 -15.7732 91.5054 0.606205 -16.7149 0.0890576 -22.3555 -1.29846 2.52831 -0.474664 9.42154 0.855075 -0.0 0.0 -0.0 9.95761 16.4842 -19.5279 -9.92828 7.70257 -67.4835 2.41469 50.0967 -1.1286 -51.165 4.20892 -4.74244 1.37879 -1.59054 -9.88726 0.0 0.0 0.0 36.321 -18.62 -0.517479 -15.5633 0.322088 2.35931 11.4162 24.8748 -1.68898 -11.0799 0.0 0.0 -0.0 0.0 -0.0 14.2569 18.0733 3.67782 -38.8929 0.397842 -5.84269 37.2023 6.94816 4.71391 1.74494 -0.0 -0.0 0.0 0.0 0.0 
2356.03 699.065 -1117.31 -23.2722 53.6841 18.9623 4.80613 -0.0716301 1.53138 4.80742 -0.168919 1.52372 4.80191 -0.362062 1.48969 4.79883 -0.122277 1.52817 -0.236372 5.7213 -4.6769 0.00753316 14.0151 -4.42481 -0.0 0.0 -0.0 -3.72183 -2.75545 -7.73917 -6.72711 -14.1083 91.187 0.582375 -16.0926 0.0823278 -23.6316 -1.40133 2.65539 -0.414671 8.72161 0.945791 -0.0 0.0 -0.0 9.71745 14.3907 -19.0924 -11.8318 6.00008 -68.9113 2.28526 48.5374 -1.03044 -52.6584 4.38642 -4.81467 1.25529 -5.54516 -10.606 0.0 0.0 0.0 35.7097 -20.3435 0.92412 -17.0526 0.319083 2.58779 17.6558 23.0592 -2.53057 -8.74036 0.0 0.0 -0.0 0.0 -0.0 17.3173 25.382 -0.880556 -41.567 0.569457 -6.21623 38.0781 1.73287 4.72178 1.68059 -0.0 -0.0 0.0 0.0 0.0 
2323.37 700.286 -1124.53 -24.4334 54.6896 20.1935 5.49886 -0.0814451 1.23399 5.49969 -0.159796 1.22631 5.49547 -0.300521 1.19961 5.49348 -0.107308 1.23201 0.760437 5.79709 -4.2069 1.00467 13.7471 -4.03438 -0.0 0.0 -0.0 -3.54988 -1.98468 -7.25538 -5.88094 -12.4841 90.2407 0.553886 -15.3433 0.0746101 -24.9132 -1.50747 2.7807 -0.519277 7.96022 -0.0528631 -0.0 0.0 -0.0 9.03314 11.5701 -17.6914 -15.1709 3.73073 -69.8678 1.97999 44.4405 -0.808902 -54.1727 4.56824 -4.88315 0.990134 -8.31945 -9.91131 0.0 0.0 0.0 35.6934 -21.5875 2.4634 -18.9364 0.306778 2.87655 21.4259 21.9566 -3.00748 -7.84465 0.0 0.0 -0.0 0.0 -0.0 18.6184 31.5091 -3.83001 -43.4591 0.70137 -6.47561 40.2073 -2.53078 4.87997 2.55995 -0.0 -0.0 0.0 0.0 0.0 
2295.2 699.692 -1136.18 -24.867 54.5978 20.5042 6.05863 0.0745811 1.12992 6.05934 0.00253469 1.13238 6.05859 -0.117317 1.12629 6.05682 0.0620203 1.13068 -0.123863 6.30107 -2.15259 0.0282346 12.9942 -1.64889 -0.0 0.0 -0.0 -3.34393 -1.58384 -6.77331 -4.42041 -10.1084 89.1384 0.477605 -13.3111 0.0557306 -25.6823 -1.57252 2.85477 -0.83212 7.54117 -2.26188 -0.0 0.0 -0.0 8.1278 10.0812 -15.7837 -17.8427 3.07723 -72.5036 1.75922 41.0674 -0.658971 -55.229 4.69608 -4.92805 0.935224 -10.5237 -10.3845 0.0 0.0 0.0 35.5034 -22.3934 3.26193 -21.7361 0.27097 3.3046 26.0443 20.9333 -3.56187 -6.66178 0.0 0.0 -0.0 0.0 -0.0 19.5634 34.5719 -6.02426 -43.7856 0.724999 -6.51992 39.7271 -6.34265 4.83543 3.33632 -0.0 -0.0 0.0 0.0 0.0 
2265.72 698.067 -1150.0 -25.4208 54.7188 21.44 6.51933 -0.0490817 0.938648 6.51982 -0.108708 0.933623 6.51746 -0.199561 0.918503 6.51629 -0.0520027 0.93849 0.631702 6.18157 -1.67064 0.774119 12.3457 -1.21539 -0.0 0.0 -0.0 -2.70995 -1.81569 -5.5534 -1.93162 -9.36874 86.8613 0.510562 -14.1937 0.0635656 -26.2282 -1.61929 2.9068 -0.5748 6.8348 -0.894502 -0.0 0.0 -0.0 8.09772 8.1797 -15.769 -20.533 1.21134 -72.6021 1.49813 36.5778 -0.495161 -55.5864 4.73952 -4.94271 0.916909 -11.8976 -10.7769 0.0 0.0 0.0 33.7302 -23.0671 3.18625 -22.2685 0.261796 3.38578 30.6436 20.4077 -4.08293 -5.1402 0.0 0.0 -0.0 0.0 -0.0 22.2694 36.2254 -8.05837 -45.0257 0.817056 -6.68703 40.3887 -6.43267 4.89298 3.85266 -0.0 -0.0 0.0 0.0 0.0 
